<?xml version="1.0" encoding="utf-8"?>
<!-- Generator: Adobe Illustrator 26.5.0, SVG Export Plug-In . SVG Version: 6.00 Build 0)  -->
<svg version="1.1" id="Layer_1" xmlns="http://www.w3.org/2000/svg" xmlns:xlink="http://www.w3.org/1999/xlink" x="0px" y="0px"
	 viewBox="0 0 127.54 28.15" style="enable-background:new 0 0 127.54 28.15;" xml:space="preserve">
<style type="text/css">
	.st0{fill:#8941B6;}
	.st1{fill:#AD4DE8;}
	.st2{fill:#402952;}
	.st3{fill:#643584;}
</style>
<g>
	<g>
		<path class="st0" d="M5.8,9.83c0.95,0,1.83,0.29,2.56,0.78c0.5-0.34,0.93-0.77,1.27-1.27C9.13,8.61,8.85,7.73,8.85,6.78l0,0
			c0-0.95,0.29-1.83,0.78-2.56C8.8,2.99,7.39,2.17,5.8,2.17l0,0c-2.54,0-4.61,2.06-4.61,4.61l0,0c0,1.6,0.81,3,2.05,3.83
			C3.97,10.12,4.85,9.83,5.8,9.83L5.8,9.83z"/>
		<path class="st1" d="M10.4,6.78c0,0.95-0.29,1.83-0.78,2.56c0.83,1.23,2.23,2.05,3.83,2.05l0,0c1.6,0,3-0.81,3.83-2.05
			c-0.49-0.73-0.78-1.61-0.78-2.56l0,0c0-0.95,0.29-1.83,0.78-2.56c-0.83-1.23-2.23-2.05-3.83-2.05l0,0c-1.6,0-3,0.81-3.83,2.05
			C10.12,4.95,10.4,5.83,10.4,6.78L10.4,6.78z"/>
		<path class="st0" d="M25.72,6.78L25.72,6.78c0-2.54-2.06-4.61-4.61-4.61l0,0c-1.6,0-3,0.81-3.83,2.05
			c0.49,0.73,0.78,1.61,0.78,2.56l0,0c0,0.95-0.29,1.83-0.78,2.56c0.34,0.5,0.77,0.93,1.27,1.27c0.73-0.49,1.61-0.78,2.56-0.78l0,0
			c0.95,0,1.83,0.29,2.56,0.78C24.91,9.78,25.72,8.38,25.72,6.78z"/>
		<path class="st1" d="M5.8,17.49c0.95,0,1.83,0.29,2.56,0.78c1.23-0.83,2.05-2.23,2.05-3.83l0,0c0-1.6-0.81-3-2.05-3.83
			c-0.73,0.49-1.61,0.78-2.56,0.78l0,0c-0.95,0-1.83-0.29-2.56-0.78C2,11.44,1.19,12.84,1.19,14.44l0,0c0,1.6,0.81,3,2.05,3.83
			C3.97,17.78,4.85,17.49,5.8,17.49L5.8,17.49z"/>
		<path class="st1" d="M21.11,11.39c-0.95,0-1.83-0.29-2.56-0.78c-1.23,0.83-2.05,2.23-2.05,3.83l0,0c0,1.6,0.81,3,2.05,3.83
			c0.73-0.49,1.61-0.78,2.56-0.78l0,0c0.95,0,1.83,0.29,2.56,0.78c1.23-0.83,2.05-2.23,2.05-3.83l0,0c0-1.6-0.81-3-2.05-3.83
			C22.94,11.1,22.06,11.39,21.11,11.39L21.11,11.39z"/>
		<path class="st0" d="M9.63,19.54c-0.34-0.5-0.77-0.93-1.27-1.27c-0.73,0.49-1.61,0.78-2.56,0.78l0,0c-0.95,0-1.83-0.29-2.56-0.78
			C2,19.1,1.19,20.5,1.19,22.1c0,2.54,2.06,4.61,4.61,4.61l0,0c1.6,0,3-0.81,3.83-2.05c-0.49-0.73-0.78-1.61-0.78-2.56
			C8.85,21.15,9.13,20.27,9.63,19.54z"/>
		<path class="st1" d="M17.28,19.54c-0.83-1.23-2.23-2.05-3.83-2.05l0,0c-1.6,0-3,0.81-3.83,2.05c0.49,0.73,0.78,1.61,0.78,2.56
			c0,0.95-0.29,1.83-0.78,2.56c0.83,1.23,2.23,2.05,3.83,2.05l0,0c1.6,0,3-0.81,3.83-2.05c-0.49-0.73-0.78-1.61-0.78-2.56
			C16.51,21.15,16.79,20.27,17.28,19.54z"/>
		<path class="st0" d="M21.11,19.05c-0.95,0-1.83-0.29-2.56-0.78c-0.5,0.34-0.93,0.77-1.27,1.27c0.49,0.73,0.78,1.61,0.78,2.56
			c0,0.95-0.29,1.83-0.78,2.56c0.83,1.23,2.23,2.05,3.83,2.05l0,0c2.54,0,4.61-2.06,4.61-4.61c0-1.6-0.81-3-2.05-3.83
			C22.94,18.76,22.06,19.05,21.11,19.05L21.11,19.05z"/>
	</g>
	<g>
		<path class="st2" d="M55.54,12.44v9.35H53.1v-9.11c0-2.44-1-3.85-3.32-3.85c-2.47,0-3.32,1.53-3.32,3.62v9.35h-2.44v-9.11
			c0-2.44-1-3.85-3.32-3.85c-2.47,0-3.32,1.53-3.32,3.62v9.35h-2.44V7.09h2.35v2.88h0.06c0.73-2,2.12-3.17,4.2-3.17
			c2.47,0,4.03,1.32,4.64,3.17h0.03c0.73-2,2.32-3.17,4.41-3.17c2.47,0,4.03,1.32,4.64,3.17l0,0C55.6,11.05,55.54,12.44,55.54,12.44
			z"/>
		<path class="st2" d="M71.07,17.14c-0.56,2.59-2.29,4.94-6.32,4.94c-4.35,0-6.82-3.53-6.82-7.64s2.32-7.64,6.7-7.64
			s7,3.44,6.61,8.38H60.4c0.12,3.06,1.88,4.97,4.59,4.97c2.56,0,3.32-1.79,3.64-3H71.07z M60.4,13.23h8.44
			c-0.21-2.62-1.62-4.5-4.2-4.5S60.64,10.62,60.4,13.23z"/>
		<path class="st2" d="M74.42,9.03h-2.67V7.09h2.67V3.74h2.44v3.35h3.73v1.94h-3.73v9.2c0,1.15,0.44,1.62,1.65,1.62h1.97v1.94h-2.65
			c-2.47,0-3.41-1.18-3.41-3.29V9.03z"/>
		<path class="st2" d="M91.59,12.29c0-2.2-1.23-3.56-3.5-3.56c-2.23,0-3.35,1.26-3.44,3h-2.44c0.15-2.7,2.2-4.94,5.88-4.94
			c3.23,0,5.94,1.65,5.94,6.05v8.94h-2.35v-2.88h-0.06c-0.73,2-2.53,3.17-4.79,3.17c-2.82,0-5.11-1.7-5.11-4.56
			c0-3,2.65-4,5.76-4.32l4.11-0.44V12.29z M91.59,15.41v-0.79l-3.91,0.44c-2.2,0.24-3.32,1.03-3.32,2.59c0,1.44,1.32,2.5,3.06,2.5
			C90.01,20.14,91.59,18.58,91.59,15.41z"/>
		<path class="st2" d="M97.87,7.09V4.8c0-2.12,0.94-3.29,3.41-3.29h2.65v1.94h-1.97c-1.2,0-1.65,0.47-1.65,1.62v2.03h3.73v1.94
			h-3.73v12.76h-2.44V9.03h-2.67V7.09H97.87z"/>
		<path class="st2" d="M114.31,12.29c0-2.2-1.23-3.56-3.5-3.56c-2.23,0-3.35,1.26-3.44,3h-2.44c0.15-2.7,2.2-4.94,5.88-4.94
			c3.23,0,5.94,1.65,5.94,6.05v8.94h-2.35v-2.88h-0.06c-0.73,2-2.53,3.17-4.79,3.17c-2.82,0-5.11-1.7-5.11-4.56
			c0-3,2.65-4,5.76-4.32l4.11-0.44V12.29z M114.31,15.41v-0.79l-3.91,0.44c-2.2,0.24-3.32,1.03-3.32,2.59c0,1.44,1.32,2.5,3.06,2.5
			C112.73,20.14,114.31,18.58,114.31,15.41z"/>
		<path class="st2" d="M121.76,9.03v12.76h-2.44V7.09h6.85v1.94H121.76z"/>
	</g>
	<g>
		<path class="st3" d="M8.85,6.78c0,0.95,0.29,1.83,0.78,2.56c0.49-0.73,0.78-1.61,0.78-2.56l0,0c0-0.95-0.29-1.83-0.78-2.56
			C9.13,4.95,8.85,5.83,8.85,6.78L8.85,6.78z"/>
		<path class="st3" d="M8.85,6.78c0,0.95,0.29,1.83,0.78,2.56c0.49-0.73,0.78-1.61,0.78-2.56l0,0c0-0.95-0.29-1.83-0.78-2.56
			C9.13,4.95,8.85,5.83,8.85,6.78L8.85,6.78z"/>
		<path class="st3" d="M16.51,6.78c0,0.95,0.29,1.83,0.78,2.56c0.49-0.73,0.78-1.61,0.78-2.56l0,0c0-0.95-0.29-1.83-0.78-2.56
			C16.79,4.95,16.51,5.83,16.51,6.78L16.51,6.78z"/>
		<path class="st3" d="M16.51,6.78c0,0.95,0.29,1.83,0.78,2.56c0.49-0.73,0.78-1.61,0.78-2.56l0,0c0-0.95-0.29-1.83-0.78-2.56
			C16.79,4.95,16.51,5.83,16.51,6.78L16.51,6.78z"/>
		<path class="st3" d="M5.8,11.39c0.95,0,1.83-0.29,2.56-0.78C7.63,10.12,6.74,9.83,5.8,9.83l0,0c-0.95,0-1.83,0.29-2.56,0.78
			C3.97,11.1,4.85,11.39,5.8,11.39L5.8,11.39z"/>
		<path class="st3" d="M5.8,11.39c0.95,0,1.83-0.29,2.56-0.78C7.63,10.12,6.74,9.83,5.8,9.83l0,0c-0.95,0-1.83,0.29-2.56,0.78
			C3.97,11.1,4.85,11.39,5.8,11.39L5.8,11.39z"/>
		<path class="st3" d="M21.11,9.83c-0.95,0-1.83,0.29-2.56,0.78c0.73,0.49,1.61,0.78,2.56,0.78l0,0c0.95,0,1.83-0.29,2.56-0.78
			C22.94,10.12,22.06,9.83,21.11,9.83L21.11,9.83z"/>
		<path class="st3" d="M21.11,9.83c-0.95,0-1.83,0.29-2.56,0.78c0.73,0.49,1.61,0.78,2.56,0.78l0,0c0.95,0,1.83-0.29,2.56-0.78
			C22.94,10.12,22.06,9.83,21.11,9.83L21.11,9.83z"/>
		<path class="st3" d="M5.8,19.05c0.95,0,1.83-0.29,2.56-0.78c-0.73-0.49-1.61-0.78-2.56-0.78l0,0c-0.95,0-1.83,0.29-2.56,0.78
			C3.97,18.76,4.85,19.05,5.8,19.05L5.8,19.05z"/>
		<path class="st3" d="M5.8,19.05c0.95,0,1.83-0.29,2.56-0.78c-0.73-0.49-1.61-0.78-2.56-0.78l0,0c-0.95,0-1.83,0.29-2.56,0.78
			C3.97,18.76,4.85,19.05,5.8,19.05L5.8,19.05z"/>
		<path class="st3" d="M9.63,19.54c-0.49,0.73-0.78,1.61-0.78,2.56c0,0.95,0.29,1.83,0.78,2.56c0.49-0.73,0.78-1.61,0.78-2.56
			C10.4,21.15,10.12,20.27,9.63,19.54z"/>
		<path class="st3" d="M9.63,19.54c-0.49,0.73-0.78,1.61-0.78,2.56c0,0.95,0.29,1.83,0.78,2.56c0.49-0.73,0.78-1.61,0.78-2.56
			C10.4,21.15,10.12,20.27,9.63,19.54z"/>
		<path class="st3" d="M21.11,17.49c-0.95,0-1.83,0.29-2.56,0.78c0.73,0.49,1.61,0.78,2.56,0.78l0,0c0.95,0,1.83-0.29,2.56-0.78
			C22.94,17.78,22.06,17.49,21.11,17.49L21.11,17.49z"/>
		<path class="st3" d="M21.11,17.49c-0.95,0-1.83,0.29-2.56,0.78c0.73,0.49,1.61,0.78,2.56,0.78l0,0c0.95,0,1.83-0.29,2.56-0.78
			C22.94,17.78,22.06,17.49,21.11,17.49L21.11,17.49z"/>
		<path class="st3" d="M17.28,19.54c-0.49,0.73-0.78,1.61-0.78,2.56c0,0.95,0.29,1.83,0.78,2.56c0.49-0.73,0.78-1.61,0.78-2.56
			C18.06,21.15,17.78,20.27,17.28,19.54z"/>
		<path class="st3" d="M17.28,19.54c-0.49,0.73-0.78,1.61-0.78,2.56c0,0.95,0.29,1.83,0.78,2.56c0.49-0.73,0.78-1.61,0.78-2.56
			C18.06,21.15,17.78,20.27,17.28,19.54z"/>
	</g>
</g>
</svg>
